<svg xmlns="http://www.w3.org/2000/svg" viewBox="0 0 512 512" role="img" aria-label="RandBasket">
  <defs>
    <linearGradient id="green" x1="70" y1="54" x2="442" y2="458" gradientUnits="userSpaceOnUse">
      <stop stop-color="#1f7a53"/>
      <stop offset="1" stop-color="#0d3f30"/>
    </linearGradient>
  </defs>
  <rect width="512" height="512" rx="116" fill="url(#green)"/>
  <path d="M116 218h280l-30 184H146l-30-184Z" fill="#f8f7f1"/>
  <path d="M177 218c4-70 35-108 79-108s75 38 79 108" fill="none" stroke="#f8f7f1" stroke-width="34" stroke-linecap="round"/>
  <path d="M202 174h61c51 0 78 24 78 62 0 27-15 46-42 56l52 74h-61l-43-65h-1v65h-44V174Zm44 39v51h17c21 0 32-9 32-26 0-17-11-25-32-25h-17Z" fill="#e96943"/>
  <path d="M170 405h172" stroke="#0d3f30" stroke-width="18" stroke-linecap="round" opacity=".18"/>
</svg>
